<svg width="28" height="28" viewBox="0 0 28 28" fill="none" xmlns="http://www.w3.org/2000/svg">
<path d="M2.80078 10.2112C2.80078 9.52802 2.80078 9.18642 2.85314 8.866C2.98648 8.05 3.36942 7.29538 3.94925 6.70595C4.17694 6.4745 4.45264 6.2728 5.00404 5.86939C5.29197 5.65874 5.43594 5.55342 5.58711 5.46632C5.97089 5.24521 6.39638 5.10618 6.83667 5.05803C7.01011 5.03906 7.18849 5.03906 7.54524 5.03906H11.6543C12.4669 5.03906 12.8732 5.03906 13.2599 5.13697C13.3882 5.16945 13.5143 5.20986 13.6375 5.25795C14.0091 5.40294 14.3398 5.63902 15.0012 6.1112L16.2632 7.01224C16.5526 7.21881 16.6972 7.3221 16.8598 7.38553C16.9137 7.40657 16.9689 7.42425 17.025 7.43846C17.1942 7.4813 17.3725 7.4813 17.7275 7.4813H19.8008C22.0506 7.4813 23.1755 7.4813 23.9641 8.05425C24.2188 8.23928 24.4428 8.46326 24.6278 8.71794C25.2008 9.50654 25.2008 10.6315 25.2008 12.8813V18.7283C25.2008 20.9781 25.2008 22.1031 24.6278 22.8917C24.4428 23.1463 24.2188 23.3703 23.9641 23.5554C23.1755 24.1283 22.0506 24.1283 19.8008 24.1283H8.20077C5.95094 24.1283 4.82602 24.1283 4.03743 23.5554C3.78274 23.3703 3.55877 23.1463 3.37373 22.8917C2.80078 22.1031 2.80078 20.9781 2.80078 18.7283V10.2112Z" fill="currentColor"/>
</svg>
