<svg width="28" height="28" viewBox="0 0 28 28" fill="none" xmlns="http://www.w3.org/2000/svg">
<g transform="translate(14 16) scale(1.12) translate(-14 -16)">
<path
            fill-rule="evenodd"
            clip-rule="evenodd"
            d="M13.9994 9.68298C17.212 9.68298 19.8167 12.2872 19.8168 15.4997C19.8168 18.7123 17.2121 21.3171 13.9994 21.3171C10.7869 21.3169 8.18274 18.7122 8.18274 15.4997C8.1829 12.2873 10.787 9.68315 13.9994 9.68298ZM9.26213 16.0247C9.47025 17.9241 10.7936 19.4876 12.5639 20.0463C12.42 19.7977 12.2952 19.5152 12.1879 19.2116C11.885 18.3541 11.693 17.2434 11.6424 16.0247H9.26213ZM16.3565 16.0247C16.3059 17.2434 16.1145 18.3542 15.8116 19.2116C15.7044 19.5151 15.5788 19.7971 15.435 20.0456C17.2054 19.487 18.5293 17.9242 18.7374 16.0247H16.3565ZM12.6938 16.0247C12.7439 17.1459 12.9212 18.1334 13.1784 18.8616C13.332 19.2962 13.503 19.61 13.6686 19.805C13.834 19.9996 13.9473 20.0256 13.9994 20.0258C14.0514 20.0258 14.1651 20.0002 14.331 19.805C14.4966 19.61 14.6676 19.2962 14.8211 18.8616C15.0784 18.1334 15.2557 17.1459 15.3058 16.0247H12.6938ZM13.9994 10.733C13.9473 10.7331 13.834 10.7598 13.6686 10.9545C13.503 11.1494 13.3319 11.4633 13.1784 11.8978C12.903 12.6777 12.7188 13.7545 12.6849 14.9747H15.3147C15.2808 13.7545 15.0966 12.6777 14.8211 11.8978C14.6676 11.4633 14.4965 11.1494 14.331 10.9545C14.1651 10.7593 14.0514 10.733 13.9994 10.733ZM15.5888 11.0051C15.6701 11.1756 15.7444 11.3576 15.8116 11.5478C16.1343 12.4613 16.3308 13.6619 16.3647 14.9747H18.7374C18.5352 13.1307 17.2817 11.6036 15.5888 11.0051ZM12.4101 11.0051C10.7174 11.6037 9.46428 13.1308 9.26213 14.9747H11.6349C11.6688 13.6619 11.8652 12.4613 12.1879 11.5478C12.2551 11.3577 12.3288 11.1756 12.4101 11.0051Z"
            fill="currentColor"
          />
</g>
</svg>
